<?xml version="1.0" encoding="UTF-8"?>
<svg id="_レイヤー_2" data-name="レイヤー 2" xmlns="http://www.w3.org/2000/svg" xmlns:xlink="http://www.w3.org/1999/xlink" viewBox="0 0 56.41 56.41">
  <defs>
    <style>
      .cls-1 {
        fill: #094;
      }

      .cls-1, .cls-2, .cls-3, .cls-4 {
        stroke-width: 0px;
      }

      .cls-2 {
        fill: url(#_名称未設定グラデーション_252);
      }

      .cls-3 {
        fill: #231815;
      }

      .cls-4 {
        fill: #040000;
      }
    </style>
    <linearGradient id="_名称未設定グラデーション_252" data-name="名称未設定グラデーション 252" x1="7.02" y1="24.67" x2="81.58" y2="24.67" gradientUnits="userSpaceOnUse">
      <stop offset="0" stop-color="#d32087"/>
      <stop offset=".03" stop-color="#d51c66"/>
      <stop offset=".07" stop-color="#d7194c"/>
      <stop offset=".1" stop-color="#d81639"/>
      <stop offset=".14" stop-color="#d9152d"/>
      <stop offset=".17" stop-color="#da152a"/>
      <stop offset="1" stop-color="#d683b4"/>
      <stop offset="1" stop-color="#e75b33"/>
      <stop offset="1" stop-color="#e75b33"/>
      <stop offset="1" stop-color="#ed802e"/>
    </linearGradient>
  </defs>
  <g id="_レイヤー_1-2" data-name="レイヤー 1">
    <g>
      <path class="cls-3" d="M46.83,42.84c1.15-1.46,2.14-3.05,2.9-4.77,1.21-2.73,1.88-5.76,1.88-8.92,0-2.21-.37-4.34-1.03-6.33-.99-2.99-2.61-5.69-4.59-8-1.98-2.31-4.33-4.25-6.81-5.72h0s-.01-.01-.01-.01c-2.29-1.29-3.97-2.47-5.21-3.51-.93-.77-1.62-1.47-2.16-2.07-.4-.45-.72-.86-.98-1.22-.2-.27-.37-.52-.54-.75-.13-.17-.25-.34-.38-.51-.1-.12-.21-.24-.33-.36-.18-.18-.4-.35-.67-.48C28.63.06,28.32,0,28.04,0c-.2,0-.41.03-.61.09-.19.06-.36.15-.52.25-.15.1-.27.2-.39.31-.21.2-.38.42-.54.64-.29.38-.56.8-.94,1.29-.28.37-.62.78-1.05,1.24-.64.68-1.48,1.47-2.62,2.35-1.15.88-2.6,1.86-4.46,2.91h0s-.01.01-.01.01c-3.3,1.96-6.38,4.74-8.66,8.16-1.14,1.71-2.08,3.57-2.74,5.57-.66,1.99-1.03,4.12-1.03,6.33,0,3.17.68,6.18,1.89,8.91.76,1.71,1.74,3.28,2.87,4.74-1.89.87-7.91,4.12-9.23,10.52,12.29,7.02,23.86-.55,26-3.73.27-.08.53-.16.79-.26.16-.06.33-.14.49-.21,1.06.43,2.16.7,3.25.86,2.44,3.27,13.81,10.44,25.88,3.55-1.42-6.89-8.29-10.13-9.58-10.68Z"/>
      <path class="cls-1" d="M22.75,48.63c-2.26-.1-4.39-.63-6.39-1.59-1.43-.43-2.75-1.04-3.97-1.82h-3.04c-1.53.58-6.44,2.76-7.51,7.06,9.54,4.49,18.54.08,20.87-2.19,0-.49.01-.98.03-1.47Z"/>
      <path class="cls-4" d="M7.79,51.75l-1.03-1.13c2-2.26,4.02-3.69,5.8-4.58.37.29.78.58,1.2.85.1.07.21.13.32.19-1.83.76-4.06,2.14-6.3,4.67Z"/>
      <path class="cls-1" d="M32.94,48.63c2.26-.1,4.39-.63,6.39-1.59,1.43-.43,2.75-1.04,3.97-1.82h3.04c1.53.58,6.44,2.76,7.51,7.06-9.54,4.49-18.54.08-20.87-2.19,0-.49-.01-.98-.03-1.47Z"/>
      <path class="cls-4" d="M46.73,50.4c-1.46-1.46-3.19-2.49-4.69-3.2.52-.32,1.02-.66,1.48-1.02,1.37.73,2.84,1.71,4.17,3.02l-.96,1.2Z"/>
      <path class="cls-2" d="M46.11,18.41c-4.42-7.18-13.77-9.16-17.88-16.11C22.64,10.93,11.48,11.84,7.93,23.3c-4.16,11.88,6.65,25.98,17.82,23.21,1.12-.36,2.07-1.03,2.84-1.91,3.75-2.76,4.78-9.16,2.33-15.89-.35-.69-.8-1.35-1.38-1.97l.69-.8c-.22.17-.45.32-.68.47l.6-.7c4.81,5.45,4.48,15.78.02,21,13.72,2.99,25.05-15.88,15.94-28.31Z"/>
    </g>
  </g>
</svg>