<?xml version="1.0" encoding="UTF-8"?>
<svg id="_レイヤー_2" data-name="レイヤー 2" xmlns="http://www.w3.org/2000/svg" xmlns:xlink="http://www.w3.org/1999/xlink" viewBox="0 0 194.36 37.37">
  <defs>
    <style>
      .cls-1 {
        fill: #094;
      }

      .cls-1, .cls-2, .cls-3, .cls-4, .cls-5 {
        stroke-width: 0px;
      }

      .cls-2 {
        fill: url(#_名称未設定グラデーション_252);
      }

      .cls-3 {
        fill: #fff;
      }

      .cls-4 {
        fill: #231815;
      }

      .cls-5 {
        fill: #040000;
      }
    </style>
    <linearGradient id="_名称未設定グラデーション_252" data-name="名称未設定グラデーション 252" x1="4.09" y1="16.84" x2="47.47" y2="16.84" gradientUnits="userSpaceOnUse">
      <stop offset="0" stop-color="#d32087"/>
      <stop offset=".03" stop-color="#d51c66"/>
      <stop offset=".07" stop-color="#d7194c"/>
      <stop offset=".1" stop-color="#d81639"/>
      <stop offset=".14" stop-color="#d9152d"/>
      <stop offset=".17" stop-color="#da152a"/>
      <stop offset="1" stop-color="#d683b4"/>
      <stop offset="1" stop-color="#e75b33"/>
      <stop offset="1" stop-color="#e75b33"/>
      <stop offset="1" stop-color="#ed802e"/>
    </linearGradient>
  </defs>
  <g id="_レイヤー_1-2" data-name="レイヤー 1">
    <g>
      <g>
        <path class="cls-3" d="M27.25,26.31c.67-.76,1.24-1.59,1.69-2.49.7-1.42,1.1-3,1.1-4.65,0-1.15-.22-2.26-.6-3.3-.57-1.56-1.52-2.97-2.67-4.17-1.15-1.21-2.52-2.22-3.96-2.98h0s0,0,0,0c-1.33-.67-2.31-1.29-3.03-1.83-.54-.4-.94-.76-1.26-1.08-.23-.24-.42-.45-.57-.63-.12-.14-.22-.27-.32-.39-.07-.09-.14-.18-.22-.26-.06-.06-.12-.13-.19-.19-.11-.09-.23-.18-.39-.25-.15-.07-.33-.1-.5-.1-.12,0-.24.02-.36.05-.11.03-.21.08-.3.13-.08.05-.16.11-.22.16-.12.11-.22.22-.32.33-.17.2-.33.42-.55.67-.16.19-.36.41-.61.64-.37.36-.86.77-1.53,1.23-.67.46-1.51.97-2.59,1.52h0s0,0,0,0c-1.92,1.02-3.71,2.47-5.04,4.25-.66.89-1.21,1.86-1.59,2.9-.38,1.04-.6,2.15-.6,3.3,0,1.65.4,3.22,1.1,4.65.44.89,1.01,1.71,1.67,2.47-1.1.45-4.6,2.15-5.37,5.49,7.15,3.66,13.89-.29,15.13-1.94.15-.04.31-.08.46-.14.1-.03.19-.07.29-.11.62.22,1.25.37,1.89.45,1.42,1.71,8.04,5.44,15.06,1.85-.82-3.59-4.82-5.28-5.57-5.57Z"/>
        <path class="cls-1" d="M13.24,29.33c-1.31-.05-2.55-.33-3.72-.83-.83-.22-1.6-.54-2.31-.95h-1.77c-.89.3-3.75,1.44-4.37,3.68,5.55,2.34,10.79.04,12.14-1.14,0-.25,0-.51.02-.77Z"/>
        <path class="cls-5" d="M4.54,30.96l-.6-.59c1.16-1.18,2.34-1.92,3.38-2.39.22.15.45.3.7.44.06.03.12.07.19.1-1.07.4-2.36,1.12-3.66,2.44Z"/>
        <path class="cls-1" d="M19.17,29.33c1.31-.05,2.55-.33,3.72-.83.83-.22,1.6-.54,2.31-.95h1.77c.89.3,3.75,1.44,4.37,3.68-5.55,2.34-10.79.04-12.14-1.14,0-.25,0-.51-.02-.77Z"/>
        <path class="cls-5" d="M27.19,30.26c-.85-.76-1.86-1.3-2.73-1.67.3-.17.59-.34.86-.53.8.38,1.66.89,2.43,1.58l-.56.63Z"/>
        <path class="cls-2" d="M26.83,13.58c-2.57-3.74-8.01-4.78-10.41-8.4-3.25,4.5-9.74,4.97-11.81,10.94-2.42,6.2,3.87,13.55,10.37,12.1.65-.19,1.2-.53,1.65-.99,2.18-1.44,2.78-4.78,1.36-8.28-.21-.36-.47-.7-.8-1.03l.4-.42c-.13.09-.26.17-.4.24l.35-.36c2.8,2.84,2.61,8.23.01,10.95,7.98,1.56,14.58-8.28,9.28-14.76Z"/>
      </g>
      <g>
        <g>
          <path class="cls-4" d="M29.85,2.66h4.14c4.12,0,7.01,2.04,7.01,7.12s-2.9,7.26-6.79,7.26h-4.36V2.66ZM33.79,13.98c1.84,0,3.32-.84,3.32-4.2s-1.48-4.07-3.32-4.07h-.13v8.28h.13Z"/>
          <path class="cls-4" d="M42.64,11.51c0-3.67,2.79-5.8,5.71-5.8s5.71,2.12,5.71,5.8-2.79,5.8-5.71,5.8-5.71-2.12-5.71-5.8ZM50.16,11.51c0-1.68-.53-2.74-1.81-2.74s-1.81,1.06-1.81,2.74.53,2.74,1.81,2.74,1.81-1.06,1.81-2.74Z"/>
          <path class="cls-4" d="M55.8,20.44l1.08-2.7c.93.4,1.57.49,2.15.49,1.35,0,1.79-.58,1.79-2.08v-7.21h-4.2v-2.96h8.01v10.05c0,2.7-1.15,5.18-5.33,5.18-1.44,0-2.52-.31-3.5-.75ZM60.16,2.26c0-1.33,1.02-2.26,2.43-2.26s2.43.93,2.43,2.26-1.02,2.21-2.43,2.21-2.43-.88-2.43-2.21Z"/>
          <path class="cls-4" d="M69.19,11.51c0-3.67,2.79-5.8,5.71-5.8s5.71,2.12,5.71,5.8-2.79,5.8-5.71,5.8-5.71-2.12-5.71-5.8ZM76.71,11.51c0-1.68-.53-2.74-1.81-2.74s-1.81,1.06-1.81,2.74.53,2.74,1.81,2.74,1.81-1.06,1.81-2.74Z"/>
          <path class="cls-4" d="M82.64,9.96c0-4.82,3.14-7.57,7.04-7.57,1.86,0,3.41.89,4.43,1.86l-2.08,2.35c-.66-.58-1.37-.93-2.35-.93-1.77,0-3.14,1.55-3.14,4.16s1.37,4.2,3.32,4.2c.93,0,1.73-.49,2.35-1.15l2.08,2.3c-1.19,1.42-2.88,2.12-4.82,2.12-3.58,0-6.81-2.43-6.81-7.35Z"/>
          <path class="cls-4" d="M95.74,11.51c0-3.67,2.79-5.8,5.71-5.8s5.71,2.12,5.71,5.8-2.79,5.8-5.71,5.8-5.71-2.12-5.71-5.8ZM103.26,11.51c0-1.68-.53-2.74-1.81-2.74s-1.81,1.06-1.81,2.74.53,2.74,1.81,2.74,1.81-1.06,1.81-2.74Z"/>
          <path class="cls-4" d="M109.5,5.97h3.1l.27,1.33h.09c.88-.84,2.08-1.59,3.69-1.59,2.46,0,3.52,1.77,3.52,4.51v6.81h-3.81v-6.33c0-1.24-.31-1.77-1.28-1.77-.71,0-1.19.31-1.77.84v7.26h-3.81V5.97Z"/>
        </g>
        <g>
          <path class="cls-4" d="M144.58,31.69c3.64-2.97,6.31-5.26,6.31-7.11,0-1.23-.78-1.81-1.98-1.81-1.01,0-1.81.65-2.54,1.29l-1.96-1.98c1.49-1.51,2.87-2.2,5.02-2.2,2.93,0,4.98,1.77,4.98,4.48,0,2.2-2.28,4.61-4.52,6.51.75-.09,1.79-.17,2.46-.17h2.76v3.1h-10.51v-2.11Z"/>
          <path class="cls-4" d="M157.46,26.91c0-4.67,2.18-7.02,5.39-7.02s5.39,2.35,5.39,7.02-2.18,7.15-5.39,7.15-5.39-2.48-5.39-7.15ZM164.96,26.91c0-3.4-.97-4.18-2.11-4.18s-2.11.78-2.11,4.18.97,4.31,2.11,4.31,2.11-.9,2.11-4.31ZM161.12,26.91c0-1.03.73-1.72,1.72-1.72s1.72.69,1.72,1.72-.73,1.72-1.72,1.72-1.72-.69-1.72-1.72Z"/>
          <path class="cls-4" d="M170.43,31.69c3.64-2.97,6.31-5.26,6.31-7.11,0-1.23-.78-1.81-1.98-1.81-1.01,0-1.81.65-2.54,1.29l-1.96-1.98c1.49-1.51,2.87-2.2,5.02-2.2,2.93,0,4.98,1.77,4.98,4.48,0,2.2-2.28,4.61-4.52,6.51.75-.09,1.79-.17,2.46-.17h2.76v3.1h-10.51v-2.11Z"/>
          <path class="cls-4" d="M189.34,26.4c0-.93.09-2.3.13-3.23h-.09c-.45.82-1.03,1.64-1.53,2.46l-1.42,2.33h7.93v2.8h-11.42v-2.59l5.28-8.01h4.57v13.66h-3.45v-7.41Z"/>
        </g>
        <g>
          <path class="cls-4" d="M90.28,30.13c0-2.55,2-3.87,7.19-4.14-.14-.82-.91-1.18-2.19-1.18-.96,0-1.91.32-3.28.96l-1.37-2.55c1.73-.96,3.51-1.5,5.42-1.5,3.23,0,5.33,1.59,5.33,5.33v6.33h-3.19l-.27-1.18h-.09c-1.11.82-2.46,1.46-3.87,1.46-2.37,0-3.69-1.64-3.69-3.51ZM97.47,29.77v-1.46c-2.78.09-3.46.73-3.46,1.5,0,.52.41.82,1.23.82.91,0,1.62-.41,2.23-.86Z"/>
          <path class="cls-4" d="M104.16,21.98h3.19l.27,1.05h.09c.86-.77,2.03-1.32,3.19-1.32,2.75,0,4.51,2.28,4.51,5.78,0,3.91-2.37,6.15-4.85,6.15-.98,0-1.84-.41-2.57-1.14h-.09l.18,1.73v3.14h-3.91v-15.39ZM111.4,27.54c0-1.87-.57-2.64-1.68-2.64-.61,0-1.09.23-1.64.82v4.19c.48.41,1.02.55,1.55.55.96,0,1.78-.73,1.78-2.91Z"/>
          <path class="cls-4" d="M117.59,30.13c0-2.55,2-3.87,7.19-4.14-.14-.82-.91-1.18-2.19-1.18-.96,0-1.91.32-3.28.96l-1.37-2.55c1.73-.96,3.51-1.5,5.42-1.5,3.23,0,5.33,1.59,5.33,5.33v6.33h-3.19l-.27-1.18h-.09c-1.11.82-2.46,1.46-3.87,1.46-2.37,0-3.69-1.64-3.69-3.51ZM124.78,29.77v-1.46c-2.78.09-3.46.73-3.46,1.5,0,.52.41.82,1.23.82.91,0,1.62-.41,2.23-.86Z"/>
          <path class="cls-4" d="M131.47,21.98h3.19l.27,1.37h.09c.91-.86,2.14-1.64,3.8-1.64,2.53,0,3.62,1.82,3.62,4.64v7.01h-3.91v-6.51c0-1.27-.32-1.82-1.32-1.82-.73,0-1.23.32-1.82.86v7.47h-3.91v-11.38Z"/>
          <path class="cls-4" d="M76.55,31.2l2.21-2.44c.84.96,1.78,1.5,2.69,1.5,1.27,0,1.98-.5,1.98-2.37v-6.05h-5.62v-3.28h9.54v9.65c0,2.96-1.5,5.42-5.76,5.42-1.64,0-3.64-.59-5.03-2.44Z"/>
        </g>
      </g>
    </g>
  </g>
</svg>