<?xml version="1.0" encoding="UTF-8"?>
<svg id="_レイヤー_2" data-name="レイヤー 2" xmlns="http://www.w3.org/2000/svg" xmlns:xlink="http://www.w3.org/1999/xlink" viewBox="0 0 198.12 50.95">
  <defs>
    <style>
      .cls-1 {
        fill: #094;
      }

      .cls-1, .cls-2, .cls-3, .cls-4 {
        stroke-width: 0px;
      }

      .cls-2 {
        fill: url(#_名称未設定グラデーション_252);
      }

      .cls-3 {
        fill: #231815;
      }

      .cls-4 {
        fill: #040000;
      }
    </style>
    <linearGradient id="_名称未設定グラデーション_252" data-name="名称未設定グラデーション 252" x1="6.96" y1="22.76" x2="80.89" y2="22.76" gradientUnits="userSpaceOnUse">
      <stop offset="0" stop-color="#d32087"/>
      <stop offset=".03" stop-color="#d51c66"/>
      <stop offset=".07" stop-color="#d7194c"/>
      <stop offset=".1" stop-color="#d81639"/>
      <stop offset=".14" stop-color="#d9152d"/>
      <stop offset=".17" stop-color="#da152a"/>
      <stop offset="1" stop-color="#d683b4"/>
      <stop offset="1" stop-color="#e75b33"/>
      <stop offset="1" stop-color="#e75b33"/>
      <stop offset="1" stop-color="#ed802e"/>
    </linearGradient>
  </defs>
  <g id="_レイヤー_1-2" data-name="レイヤー 1">
    <g>
      <path class="cls-3" d="M70.29,3.19h4.97c4.95,0,8.43,2.45,8.43,8.57s-3.48,8.73-8.17,8.73h-5.24V3.19ZM75.03,16.81c2.21,0,3.99-1.01,3.99-5.05s-1.78-4.89-3.99-4.89h-.16v9.95h.16Z"/>
      <path class="cls-3" d="M85.67,13.83c0-4.42,3.35-6.97,6.86-6.97s6.86,2.55,6.86,6.97-3.35,6.97-6.86,6.97-6.86-2.55-6.86-6.97ZM94.71,13.83c0-2.02-.64-3.3-2.18-3.3s-2.18,1.28-2.18,3.3.64,3.3,2.18,3.3,2.18-1.28,2.18-3.3Z"/>
      <path class="cls-3" d="M101.49,24.58l1.3-3.25c1.12.48,1.89.59,2.58.59,1.62,0,2.15-.69,2.15-2.5v-8.67h-5.05v-3.56h9.63v12.08c0,3.25-1.38,6.22-6.41,6.22-1.73,0-3.03-.37-4.2-.9ZM106.73,2.71c0-1.6,1.22-2.71,2.93-2.71s2.93,1.12,2.93,2.71-1.22,2.66-2.93,2.66-2.93-1.06-2.93-2.66Z"/>
      <path class="cls-3" d="M117.59,13.83c0-4.42,3.35-6.97,6.86-6.97s6.86,2.55,6.86,6.97-3.35,6.97-6.86,6.97-6.86-2.55-6.86-6.97ZM126.63,13.83c0-2.02-.64-3.3-2.18-3.3s-2.18,1.28-2.18,3.3.64,3.3,2.18,3.3,2.18-1.28,2.18-3.3Z"/>
      <path class="cls-3" d="M133.76,11.97c0-5.8,3.78-9.1,8.46-9.1,2.23,0,4.1,1.06,5.32,2.23l-2.5,2.82c-.8-.69-1.65-1.12-2.82-1.12-2.13,0-3.78,1.86-3.78,5s1.65,5.05,3.99,5.05c1.12,0,2.07-.59,2.82-1.38l2.5,2.77c-1.44,1.7-3.46,2.55-5.8,2.55-4.31,0-8.19-2.93-8.19-8.83Z"/>
      <path class="cls-3" d="M149.51,13.83c0-4.42,3.35-6.97,6.86-6.97s6.86,2.55,6.86,6.97-3.35,6.97-6.86,6.97-6.86-2.55-6.86-6.97ZM158.55,13.83c0-2.02-.64-3.3-2.18-3.3s-2.18,1.28-2.18,3.3.64,3.3,2.18,3.3,2.18-1.28,2.18-3.3Z"/>
      <path class="cls-3" d="M166.05,7.18h3.72l.32,1.6h.11c1.06-1.01,2.5-1.92,4.44-1.92,2.95,0,4.23,2.13,4.23,5.43v8.19h-4.58v-7.61c0-1.49-.37-2.13-1.54-2.13-.85,0-1.44.37-2.13,1.01v8.73h-4.58V7.18Z"/>
      <path class="cls-3" d="M53.6,40.25l2.58-2.85c.98,1.12,2.08,1.76,3.14,1.76,1.49,0,2.31-.59,2.31-2.77v-7.08h-6.57v-3.83h11.15v11.28c0,3.46-1.76,6.33-6.73,6.33-1.92,0-4.26-.69-5.88-2.85Z"/>
      <path class="cls-3" d="M69.64,39c0-2.98,2.34-4.52,8.41-4.84-.16-.96-1.06-1.38-2.55-1.38-1.12,0-2.23.37-3.83,1.12l-1.6-2.98c2.02-1.12,4.1-1.76,6.33-1.76,3.78,0,6.23,1.86,6.23,6.22v7.4h-3.72l-.32-1.38h-.11c-1.3.96-2.87,1.7-4.52,1.7-2.77,0-4.31-1.92-4.31-4.1ZM78.05,38.57v-1.7c-3.25.11-4.04.85-4.04,1.76,0,.61.48.96,1.44.96,1.06,0,1.89-.48,2.61-1.01Z"/>
      <path class="cls-3" d="M85.87,29.48h3.72l.32,1.22h.11c1.01-.9,2.37-1.54,3.72-1.54,3.22,0,5.27,2.66,5.27,6.76,0,4.58-2.77,7.18-5.67,7.18-1.14,0-2.15-.48-3.01-1.33h-.11l.21,2.02v3.67h-4.58v-17.98ZM94.33,35.97c0-2.18-.67-3.09-1.97-3.09-.72,0-1.28.27-1.92.96v4.89c.56.48,1.2.64,1.81.64,1.12,0,2.07-.85,2.07-3.41Z"/>
      <path class="cls-3" d="M101.56,39c0-2.98,2.34-4.52,8.41-4.84-.16-.96-1.06-1.38-2.55-1.38-1.12,0-2.23.37-3.83,1.12l-1.6-2.98c2.02-1.12,4.1-1.76,6.33-1.76,3.78,0,6.23,1.86,6.23,6.22v7.4h-3.72l-.32-1.38h-.11c-1.3.96-2.87,1.7-4.52,1.7-2.77,0-4.31-1.92-4.31-4.1ZM109.97,38.57v-1.7c-3.25.11-4.04.85-4.04,1.76,0,.61.48.96,1.44.96,1.06,0,1.89-.48,2.61-1.01Z"/>
      <path class="cls-3" d="M117.79,29.48h3.72l.32,1.6h.11c1.06-1.01,2.5-1.92,4.44-1.92,2.95,0,4.23,2.13,4.23,5.43v8.19h-4.58v-7.61c0-1.49-.37-2.13-1.54-2.13-.85,0-1.44.37-2.13,1.01v8.73h-4.58v-13.3Z"/>
      <path class="cls-3" d="M136.64,40.17c4.5-3.67,7.79-6.49,7.79-8.78,0-1.52-.96-2.23-2.45-2.23-1.25,0-2.24.8-3.14,1.6l-2.42-2.45c1.84-1.86,3.54-2.71,6.2-2.71,3.62,0,6.15,2.18,6.15,5.53,0,2.71-2.82,5.69-5.59,8.03.93-.11,2.21-.21,3.03-.21h3.41v3.83h-12.98v-2.61Z"/>
      <path class="cls-3" d="M152.55,34.26c0-5.77,2.69-8.67,6.65-8.67s6.65,2.9,6.65,8.67-2.69,8.83-6.65,8.83-6.65-3.06-6.65-8.83ZM161.81,34.26c0-4.2-1.2-5.16-2.61-5.16s-2.61.96-2.61,5.16,1.2,5.32,2.61,5.32,2.61-1.12,2.61-5.32ZM157.07,34.26c0-1.28.9-2.13,2.13-2.13s2.13.85,2.13,2.13-.9,2.13-2.13,2.13-2.13-.85-2.13-2.13Z"/>
      <path class="cls-3" d="M168.56,40.17c4.5-3.67,7.79-6.49,7.79-8.78,0-1.52-.96-2.23-2.45-2.23-1.25,0-2.24.8-3.14,1.6l-2.42-2.45c1.84-1.86,3.54-2.71,6.2-2.71,3.62,0,6.15,2.18,6.15,5.53,0,2.71-2.82,5.69-5.59,8.03.93-.11,2.21-.21,3.03-.21h3.41v3.83h-12.98v-2.61Z"/>
      <path class="cls-3" d="M191.92,33.63c0-1.14.11-2.85.16-3.99h-.11c-.56,1.01-1.28,2.02-1.89,3.03l-1.76,2.87h9.79v3.46h-14.1v-3.19l6.52-9.9h5.64v16.87h-4.26v-9.15Z"/>
      <path class="cls-3" d="M46.44,38.89c1.14-1.3,2.12-2.71,2.87-4.24,1.2-2.43,1.87-5.11,1.87-7.93,0-1.96-.37-3.85-1.02-5.62-.98-2.66-2.58-5.05-4.55-7.11-1.97-2.06-4.3-3.78-6.75-5.08h0s-.01-.01-.01-.01c-2.27-1.15-3.93-2.2-5.16-3.12-.92-.69-1.61-1.3-2.14-1.84-.4-.4-.71-.76-.97-1.08-.2-.24-.37-.46-.54-.67-.13-.16-.25-.3-.38-.45-.1-.11-.2-.22-.33-.32-.18-.16-.4-.31-.66-.42-.26-.11-.57-.17-.85-.17-.2,0-.41.03-.61.08-.19.05-.36.13-.51.22-.14.09-.27.18-.38.28-.21.18-.38.37-.54.56-.28.34-.56.71-.93,1.15-.28.33-.62.69-1.04,1.1-.63.61-1.46,1.31-2.6,2.09-1.14.78-2.58,1.65-4.42,2.58h0s-.01.01-.01.01c-3.27,1.74-6.32,4.21-8.59,7.24-1.13,1.52-2.06,3.17-2.71,4.94-.65,1.77-1.02,3.66-1.02,5.62,0,2.81.68,5.49,1.88,7.92.75,1.51,1.73,2.91,2.85,4.21-1.87.77-7.84,3.66-9.15,9.35,12.19,6.23,23.66-.49,25.78-3.31.26-.07.52-.14.78-.23.16-.06.32-.12.49-.19,1.06.38,2.14.62,3.22.76,2.42,2.91,13.7,9.27,25.66,3.15-1.4-6.12-8.22-9-9.5-9.49Z"/>
      <path class="cls-1" d="M22.55,44.04c-2.24-.09-4.35-.56-6.34-1.42-1.42-.38-2.73-.92-3.93-1.61h-3.01c-1.52.52-6.38,2.46-7.45,6.27,9.46,3.99,18.38.07,20.69-1.94,0-.43.01-.87.03-1.3Z"/>
      <path class="cls-4" d="M7.73,46.81l-1.02-1.01c1.98-2.01,3.98-3.28,5.75-4.07.37.26.77.51,1.19.76.1.06.21.11.32.17-1.82.68-4.03,1.9-6.24,4.15Z"/>
      <path class="cls-1" d="M32.66,44.04c2.24-.09,4.35-.56,6.34-1.42,1.42-.38,2.73-.92,3.93-1.61h3.01c1.52.52,6.38,2.46,7.45,6.27-9.46,3.99-18.38.07-20.69-1.94,0-.43-.01-.87-.03-1.3Z"/>
      <path class="cls-4" d="M46.33,45.61c-1.45-1.29-3.16-2.21-4.65-2.84.51-.29,1.01-.59,1.47-.91,1.36.65,2.82,1.52,4.13,2.68l-.95,1.07Z"/>
      <path class="cls-2" d="M45.72,17.2c-4.39-6.38-13.66-8.14-17.73-14.31-5.53,7.66-16.6,8.47-20.12,18.65-4.12,10.56,6.59,23.08,17.67,20.62,1.11-.32,2.05-.91,2.81-1.69,3.71-2.45,4.74-8.14,2.31-14.12-.35-.61-.8-1.2-1.37-1.75l.68-.71c-.22.15-.45.29-.67.42l.59-.62c4.77,4.84,4.44,14.02.02,18.66,13.6,2.66,24.84-14.11,15.81-25.14Z"/>
    </g>
  </g>
</svg>