<?xml version="1.0" encoding="UTF-8"?>
<svg id="_レイヤー_2" data-name="レイヤー 2" xmlns="http://www.w3.org/2000/svg" viewBox="0 0 63.83 74.38">
  <defs>
    <style>
      .cls-1 {
        fill: #988b77;
      }

      .cls-1, .cls-2, .cls-3 {
        stroke-width: 0px;
      }

      .cls-2 {
        fill: #e68c94;
      }

      .cls-3 {
        fill: #040000;
      }
    </style>
  </defs>
  <g id="_レイヤー_1-2" data-name="レイヤー 1">
    <g>
      <rect class="cls-1" x="0" y="10.55" width="63.83" height="63.83" rx="24.06" ry="24.06"/>
      <g>
        <path class="cls-1" d="M41.04,14.57c2.41,1.48,4.88,2.82,7.46,3.98,2.38.93,4.79,1.8,7.16,2.77,1.67.68,3.37,1.36,5.03,2.12V0l-22.6,13.05c1.01.47,2.01.95,2.95,1.53Z"/>
        <polygon class="cls-2" points="58.84 2.83 58.84 19.72 44.21 11.28 58.84 2.83"/>
      </g>
      <circle class="cls-3" cx="31.91" cy="53.17" r="5.15"/>
      <g>
        <path class="cls-1" d="M23.45,14.57c-2.41,1.48-4.88,2.82-7.46,3.98-2.38.93-4.79,1.8-7.16,2.77-1.67.68-3.37,1.36-5.03,2.12V0s22.6,13.05,22.6,13.05c-1.01.47-2.01.95-2.95,1.53Z"/>
        <polygon class="cls-2" points="5.64 2.83 5.64 19.72 20.27 11.28 5.64 2.83"/>
      </g>
    </g>
  </g>
</svg>