<?xml version="1.0" encoding="UTF-8"?>
<svg id="_レイヤー_2" data-name="レイヤー 2" xmlns="http://www.w3.org/2000/svg" viewBox="0 0 65.62 77.31">
  <defs>
    <style>
      .cls-1 {
        fill: #f5d01f;
      }

      .cls-1, .cls-2, .cls-3 {
        stroke-width: 0px;
      }

      .cls-2 {
        fill: #e71f19;
      }

      .cls-3 {
        fill: #006654;
      }
    </style>
  </defs>
  <g id="_レイヤー_1-2" data-name="レイヤー 1">
    <g>
      <g>
        <ellipse class="cls-3" cx="34.03" cy="48.52" rx="31.59" ry="28.8"/>
        <g>
          <path class="cls-3" d="M15.44,29.5c2.74.45,5.3.97,7.5,1.41,1.92.39,3.86.73,5.8,1.05,1.09-1.31,2.3-2.57,3.7-3.74,2.41-2.03,4.96-4.03,7.6-5.95l-3.68,1.26L19.43.18l1.41,27.96-5.41,1.36Z"/>
          <path class="cls-3" d="M22.94,30.91c1.92.39,3.86.73,5.8,1.05,1.09-1.31,2.3-2.57,3.7-3.74,2.68-2.25,5.51-4.48,8.47-6.59l-.91-.02L33,0l-8.28,21.24-24.72-.62,11.93,8.36c4.05.52,7.9,1.3,11.01,1.93Z"/>
        </g>
      </g>
      <polygon class="cls-1" points="33.76 73.02 42.73 58.5 24.79 58.5 33.76 73.02"/>
      <polygon class="cls-1" points="33.76 48.51 42.73 58.5 24.79 58.5 33.76 48.51"/>
      <polygon class="cls-2" points="26.92 35.08 19.42 31.89 11.49 33.69 6.16 39.79 5.47 47.85 9.68 54.81 17.18 58 25.11 56.2 30.44 50.11 31.13 42.04 26.92 35.08"/>
      <polygon class="cls-2" points="40.86 35.58 48.37 32.39 56.3 34.19 61.63 40.29 62.32 48.36 58.11 55.31 50.61 58.5 42.68 56.7 37.35 50.61 36.65 42.54 40.86 35.58"/>
    </g>
  </g>
</svg>